<?xml version="1.0" encoding="utf-8"?>
<!-- Generator: Adobe Illustrator 26.1.0, SVG Export Plug-In . SVG Version: 6.00 Build 0)  -->
<svg version="1.1" id="Layer_1" xmlns="http://www.w3.org/2000/svg" xmlns:xlink="http://www.w3.org/1999/xlink" x="0px" y="0px"
	 viewBox="0 0 500 250" style="enable-background:new 0 0 500 250;" xml:space="preserve">
<style type="text/css">
	.st0{fill:#FFFFFF;}
	.st1{fill:#b4cad9;}
</style>
<g>
	<g>
		<path class="st0" d="M53.03,41.68c0.91,0,1.51,0.7,1.51,1.51v66.58c0,0.71-0.6,1.41-1.51,1.41H35.2c-0.7,0-1.41-0.71-1.41-1.41
			V43.19c0-0.81,0.71-1.51,1.41-1.51H53.03z"/>
		<path class="st0" d="M119.61,41.68c0.91,0,1.51,0.7,1.51,1.51v66.58c0,0.71-0.6,1.41-1.51,1.41h-17.43c-0.7,0-1.61-0.5-2.12-1.31
			L82.54,78.55v31.23c0,0.71-0.6,1.41-1.51,1.41H63.2c-0.81,0-1.41-0.71-1.41-1.41V43.19c0-0.81,0.6-1.51,1.41-1.51h17.43
			c0.91,0,1.91,0.5,2.32,1.31l17.43,31.33V43.19c0-0.81,0.71-1.51,1.41-1.51H119.61z"/>
		<path class="st0" d="M195.76,41.68c0.81,0,1.31,0.7,1.01,1.41l-23.07,66.68c-0.2,0.71-1.01,1.41-1.81,1.41h-22.16
			c-0.81,0-1.61-0.71-1.81-1.41l-23.07-66.68c-0.3-0.71,0.2-1.41,1.01-1.41h22.46c0.91,0,1.71,0.7,1.91,1.41l10.58,41.4l10.58-41.4
			c0.2-0.71,1.01-1.41,1.91-1.41H195.76z"/>
		<path class="st0" d="M219.73,41.68c0.91,0,1.51,0.7,1.51,1.51v66.58c0,0.71-0.6,1.41-1.51,1.41H201.9c-0.7,0-1.41-0.71-1.41-1.41
			V43.19c0-0.81,0.71-1.51,1.41-1.51H219.73z"/>
		<path class="st0" d="M234.03,90.03c0.3-1.01,1.01-1.31,1.81-0.81c4.63,2.62,10.17,4.53,14,4.83c3.22,0,5.34-1.51,5.34-3.83
			c0-5.94-28.31-5.64-28.31-27.6c0-13.5,10.17-22.46,25.48-22.46c7.15,0,16.22,2.92,22.56,7.25c0.81,0.5,1.11,1.31,0.81,1.81
			l-6.35,14.2c-0.3,1.01-1.01,1.31-1.81,0.81c-4.94-2.82-10.68-4.94-14.2-5.24c-3.12,0-5.14,1.41-5.14,3.63
			c0,5.94,28.51,5.54,28.51,27.7c0,13.4-10.37,22.36-25.89,22.36c-8.46,0-17.33-2.62-22.36-6.65c-0.81-0.6-1.11-1.31-0.81-1.81
			L234.03,90.03z"/>
		<path class="st0" d="M301.62,41.68c0.91,0,1.51,0.7,1.51,1.51v66.58c0,0.71-0.6,1.41-1.51,1.41h-17.83
			c-0.71,0-1.41-0.71-1.41-1.41V43.19c0-0.81,0.71-1.51,1.41-1.51H301.62z"/>
		<path class="st0" d="M342.12,41.68c13.19,0,21.96,7.86,21.96,19.64c0,7.25-3.53,12.59-8.96,14.2c6.35,1.61,10.48,7.66,10.48,16.02
			c0,11.79-8.76,19.64-21.86,19.64H311.8c-0.81,0-1.41-0.71-1.41-1.41V43.19c0-0.71,0.6-1.51,1.41-1.51H342.12z M337.48,68.98
			c3.02,0,5.04-1.81,5.04-4.63c0-2.82-2.01-4.63-5.04-4.63h-6.35v9.27H337.48z M339.3,93.15c2.92,0,4.94-1.91,4.94-4.84
			s-2.01-4.83-4.94-4.83h-8.16v9.67H339.3z"/>
		<path class="st0" d="M410.91,93.05c0.71,0,1.31,0.6,1.31,1.41l-1.41,15.31c-0.1,0.71-0.81,1.41-1.61,1.41h-36.36
			c-0.81,0-1.51-0.71-1.51-1.41V43.19c0-0.81,0.71-1.51,1.51-1.51h17.83c0.81,0,1.51,0.7,1.51,1.51v49.86H410.91z"/>
		<path class="st0" d="M464.7,93.05c0.81,0,1.51,0.6,1.51,1.31v15.41c0,0.71-0.71,1.41-1.51,1.41h-46.84
			c-0.71,0-1.41-0.81-1.61-1.51V43.09c0-0.91,0.5-1.41,1.41-1.41h45.83c0.91,0,1.61,0.7,1.61,1.41V58.3c0,0.91-0.71,1.51-1.61,1.51
			H437.2v7.96h21.35c0.91,0,1.41,0.71,1.31,1.31l-1.41,14.1c-0.1,0.6-0.81,1.31-1.71,1.31H437.2v8.56H464.7z"/>
		<path class="st0" d="M107.52,138.68c0.91,0,1.51,0.7,1.51,1.41v15.21c0,0.91-0.6,1.51-1.51,1.51H81.93v9.17h20.25
			c0.91,0,1.41,0.7,1.31,1.31l-1.41,14.1c-0.1,0.6-0.81,1.31-1.71,1.31H81.93v24.07c0,0.71-0.7,1.41-1.51,1.41H62.59
			c-0.81,0-1.41-0.81-1.41-1.51v-66.58c0-0.71,0.6-1.41,1.41-1.41H107.52z"/>
		<path class="st0" d="M170.78,206.57c0.5,0.91-0.2,1.61-1.11,1.61h-21.56c-1.01,0-1.91-0.71-2.32-1.61l-10.48-21.96h-1.21v22.16
			c0,0.71-0.7,1.41-1.61,1.41h-17.73c-0.81,0-1.51-0.71-1.51-1.41v-66.58c0-0.81,0.71-1.51,1.51-1.51h26.59
			c15.51,0,25.79,9.07,25.79,22.76c0,7.96-4.83,16.02-12.39,19.24L170.78,206.57z M140.05,167.49c3.42,0,5.74-2.11,5.74-5.34
			c0-3.22-2.32-5.34-5.74-5.34h-5.94v10.68H140.05z"/>
		<path class="st0" d="M193.84,138.68c0.91,0,1.51,0.7,1.51,1.51v66.58c0,0.71-0.6,1.41-1.51,1.41h-17.83
			c-0.7,0-1.41-0.71-1.41-1.41v-66.58c0-0.81,0.71-1.51,1.41-1.51H193.84z"/>
		<path class="st0" d="M250.86,190.05c0.81,0,1.51,0.6,1.51,1.31v15.41c0,0.71-0.71,1.41-1.51,1.41h-46.84
			c-0.7,0-1.41-0.81-1.61-1.51v-66.58c0-0.91,0.5-1.41,1.41-1.41h45.83c0.91,0,1.61,0.7,1.61,1.41v15.21c0,0.91-0.7,1.51-1.61,1.51
			h-26.29v7.96h21.35c0.91,0,1.41,0.71,1.31,1.31l-1.41,14.1c-0.1,0.6-0.81,1.31-1.71,1.31h-19.54v8.56H250.86z"/>
		<path class="st0" d="M315.82,138.68c0.91,0,1.51,0.7,1.51,1.51v66.58c0,0.71-0.6,1.41-1.51,1.41H298.4c-0.71,0-1.61-0.5-2.12-1.31
			l-17.53-31.33v31.23c0,0.71-0.6,1.41-1.51,1.41h-17.83c-0.81,0-1.41-0.71-1.41-1.41v-66.58c0-0.81,0.6-1.51,1.41-1.51h17.43
			c0.91,0,1.91,0.5,2.32,1.31l17.43,31.33v-31.13c0-0.81,0.71-1.51,1.41-1.51H315.82z"/>
		<path class="st0" d="M349.37,138.68c21.35,0,35.56,13.8,35.56,34.75c0,20.75-14.2,34.75-35.56,34.75H326
			c-0.71,0-1.41-0.71-1.41-1.51v-66.48c0-0.81,0.71-1.51,1.41-1.51H349.37z M350.58,190.05c7.76,0,12.99-6.65,12.99-16.62
			c0-9.97-5.24-16.62-12.99-16.62h-5.24v33.24H350.58z"/>
		<path class="st0" d="M396.11,187.03c0.3-1.01,1.01-1.31,1.81-0.81c4.63,2.62,10.17,4.53,14,4.84c3.22,0,5.34-1.51,5.34-3.83
			c0-5.94-28.3-5.64-28.3-27.6c0-13.5,10.17-22.46,25.48-22.46c7.15,0,16.22,2.92,22.56,7.25c0.81,0.5,1.11,1.31,0.81,1.81
			l-6.35,14.2c-0.3,1.01-1.01,1.31-1.81,0.81c-4.94-2.82-10.68-4.94-14.2-5.24c-3.12,0-5.14,1.41-5.14,3.63
			c0,5.94,28.51,5.54,28.51,27.7c0,13.4-10.37,22.36-25.89,22.36c-8.46,0-17.33-2.62-22.36-6.65c-0.81-0.6-1.11-1.31-0.81-1.81
			L396.11,187.03z"/>
	</g>
</g>
<g>
	<path class="st1" d="M159.08,165.58V83.89H340.9v81.69H159.08z"/>
	<path class="st1" d="M174.61,158.6V92.54h150.76v66.06H174.61z"/>
	<path class="st0" d="M164.41,88.32v72.83h171.19V88.32H164.41z M201.68,100.18h12.21l-14.13,18.68l16.11,30.43h-11.82l-11.49-22.05
		l-5.81,7.33v14.72h-10.5v-49.11h10.5v19.67L201.68,100.18z M224.19,149.29v-49.11h10.5v49.11H224.19z M242.47,109.16v-8.98h35.38
		v8.98h-12.48v40.14h-10.5v-40.14H242.47z M323.73,149.29h-10.63v-20.46h-16.64v20.46h-10.49v-49.11h10.49v18.95h16.77v-18.95h10.5
		V149.29z"/>
</g>
</svg>
